<?xml version="1.0" encoding="UTF-8" standalone="no"?>
<svg
   fill="none"
   version="1.1"
   viewBox="0 0 99.999695 25"
   id="svg91"
   width="99.999695"
   height="25"
   xmlns="http://www.w3.org/2000/svg"
   xmlns:svg="http://www.w3.org/2000/svg">
  <script
     id="script68" />
  <g
     transform="matrix(0.73538,0,0,0.73538,-0.01198669,0.46210149)"
     clip-path="url(#a)"
     fill="#000"
     id="g84"
     style="fill:#ffffff">
    <g
       fill="#000"
       id="g82"
       style="fill:#ffffff">
      <path
         d="m 45.526,0.36963 c -1.1217,0.36726 -2.2594,0.71856 -3.4132,1.0379 -11.57,3.0818 -23.268,2.491 -33.828,-1.0379 l -2.0511,13.062 4.1504,1.1178 3.8298,-6.994 c 1.0256,0.20758 2.0512,0.38323 3.0928,0.54291 l 1.1858,7.8722 4.2785,0.3673 2.5479,-7.5529 c 1.0416,0.03194 2.0992,0.03194 3.1408,0 l 2.5479,7.5529 4.2786,-0.3673 1.1858,-7.8882 c 1.0255,-0.15968 2.0511,-0.33532 3.0927,-0.54291 l 3.8299,7.01 4.1503,-1.1018 z"
         id="path70"
         style="fill:#ffffff" />
      <path
         d="m 37.193,16.37 -3.8298,7.01 C 32.3376,23.1724 31.312,22.9968 30.2705,22.8371 l -1.1859,-7.8882 -4.2945,-0.3673 -2.5479,7.5529 c -1.0576,-0.0319 -2.0992,-0.0319 -3.1408,0 l -2.5479,-7.5529 -4.2786,0.3673 -1.1858,7.8722 C 10.0475,22.9808 9.022,23.1564 7.9964,23.364 L 4.1666,16.37 0.0163,17.4878 2.0674,30.5338 c 10.56,-3.5289 22.258,-4.1198 33.828,-1.022 1.1537,0.3034 2.2915,0.6547 3.4132,1.038 l 2.0511,-13.062 z"
         id="path72"
         style="fill:#ffffff" />
      <path
         d="m 69.354,8.5136 c 0,0 -1.8588,-2.4271 -5.8008,-2.4271 -3.9581,0 -9.134,2.2515 -9.134,9.3733 0,7.1217 5.1759,9.4371 9.134,9.4371 3.958,0 5.2239,-2.0279 5.8008,-3.018 0,4.3274 -3.9901,6.4352 -9.0218,3.9442 l -2.2594,4.8702 c 6.4899,3.2735 16.073,2.523 16.073,-8.7824 V 6.5339 h -4.1183 z m -4.7913,11.289 c -1.6024,0 -4.0222,-1.1018 -4.0222,-4.3433 0,-3.2415 2.4198,-4.3433 4.0222,-4.3433 1.6025,0 4.0222,1.1018 4.0222,4.3433 0,3.2415 -2.4197,4.3433 -4.0222,4.3433 z"
         id="path74"
         style="fill:#ffffff" />
      <path
         d="m 127.44,9.4554 -0.994,-2.9222 h -4.118 v 17.916 h 5.721 v -9.0219 c 0,-3.1298 2.724,-4.5988 5.592,-3.497 l 2.372,-5.0939 c -6.041,-2.6667 -8.573,2.6188 -8.573,2.6188 z"
         id="path76"
         style="fill:#ffffff" />
      <path
         d="m 118.1,6.5335 h -4.119 l -0.689,1.98 c 0,0 -1.859,-2.4271 -5.801,-2.4271 -3.958,0 -9.1336,2.6347 -9.1336,9.3733 0,6.6746 5.1756,9.4371 9.1336,9.4371 4.631,0 5.801,-3.018 5.801,-3.018 v 2.5869 h 4.808 v -2.5549 z m -9.599,13.269 c -1.603,0 -4.022,-1.1018 -4.022,-4.3433 0,-3.2415 2.419,-4.3433 4.022,-4.3433 1.602,0 4.022,1.1018 4.022,4.3433 0,3.2415 -2.42,4.3433 -4.022,4.3433 z"
         id="path78"
         style="fill:#ffffff" />
      <path
         d="m 87.077,5.687 c -7.0347,0 -10.672,4.9661 -10.672,9.6128 0,4.6467 3.269,10.172 10.16,10.172 6.8906,0 9.2302,-4.487 9.5987,-5.2055 l -3.7818,-2.4591 c -0.7371,1.1816 -2.5479,2.5708 -4.8714,2.5708 -1.8909,0 -4.0222,-1.2295 -4.7433,-3.3692 h 13.541 C 96.6928,11.915 94.1129,5.6878 87.0781,5.6878 Z m -4.0382,7.4411 c 0.7051,-1.4531 2.0672,-2.4111 3.878,-2.4111 2.644,0 3.5093,2.4111 3.5093,2.4111 z"
         id="path80"
         style="fill:#ffffff" />
    </g>
  </g>
  <defs
     id="defs89">
    <clipPath
       id="a">
      <rect
         transform="translate(0,0.36963)"
         width="136"
         height="32"
         fill="#ffffff"
         id="rect86"
         x="0"
         y="0" />
    </clipPath>
  </defs>
</svg>
